G04*
G04 #@! TF.GenerationSoftware,Altium Limited,Altium Designer,23.2.1 (34)*
G04*
G04 Layer_Color=65535*
%FSTAX44Y44*%
%MOMM*%
G71*
G04*
G04 #@! TF.SameCoordinates,0515AB9E-1A46-41C6-8C13-71CA13384C49*
G04*
G04*
G04 #@! TF.FilePolarity,Positive*
G04*
G01*
G75*
%ADD10C,0.1270*%
%ADD11C,0.2000*%
%ADD12C,0.4000*%
D10*
X003161Y0017919D02*
Y00269138D01*
Y0017919D02*
X00333372D01*
X00451228D02*
X004685D01*
Y00269138D01*
X0031559Y004821D02*
X0046799D01*
X0022975Y004775D02*
Y0058275D01*
Y004775D02*
X002595D01*
Y00577D01*
X0025375Y0058275D02*
X002595Y00577D01*
X0022975Y0058275D02*
X0025375D01*
X0023Y00315D02*
X002535D01*
X0026025Y0030825D01*
Y001835D02*
Y0030825D01*
X0022975Y001835D02*
X0026025D01*
X0022975D02*
Y0031475D01*
X0023Y00315D01*
X0055475Y003265D02*
Y0040675D01*
X005255Y0033175D02*
Y0040675D01*
Y0033175D02*
X0053075Y003265D01*
X0055475D01*
X005255Y0040675D02*
X0055475D01*
Y004095D02*
Y0051475D01*
X00525D02*
X0055475D01*
X00525Y0041525D02*
Y0051475D01*
Y0041525D02*
X0053075Y004095D01*
X0055475D01*
X005025Y002095D02*
X005225D01*
X005025Y001995D02*
Y002095D01*
Y001995D02*
X005225D01*
Y002095D01*
X0022975Y004755D02*
X0025325D01*
X002595Y0046925D01*
Y00318D02*
Y0046925D01*
X0022975Y00318D02*
X002595D01*
X0022975D02*
Y004755D01*
X005655Y00183D02*
Y001955D01*
X0054075Y00183D02*
X005655D01*
X0054075D02*
Y001955D01*
X005655D01*
X00540808Y00196792D02*
Y00206792D01*
X00560808D01*
Y00196792D02*
Y00206792D01*
X00540808Y00196792D02*
X00560808D01*
X005025Y0017675D02*
Y0018925D01*
X0052725D01*
Y0017675D02*
Y0018925D01*
X005025Y0017675D02*
X0052725D01*
X005025Y0019925D02*
X005225D01*
X005025Y0018925D02*
Y0019925D01*
Y0018925D02*
X005225D01*
Y0019925D01*
D11*
X00392Y00521D02*
Y00542D01*
X00423Y00507D02*
Y00516997D01*
X00427998D01*
X00429664Y00515331D01*
Y00511998D01*
X00427998Y00510332D01*
X00423D01*
X00426332D02*
X00429664Y00507D01*
X00406605Y00538074D02*
X00404439Y0054024D01*
X00400107D01*
X00397941Y00538074D01*
Y00529411D01*
X00400107Y00527244D01*
X00404439D01*
X00406605Y00529411D01*
X00410937Y00527244D02*
Y00535908D01*
X00415269Y0054024D01*
X00419601Y00535908D01*
Y00527244D01*
Y00533742D01*
X00410937D01*
X00423933Y00527244D02*
Y0054024D01*
X00432597Y00527244D01*
Y0054024D01*
X00345664Y0053783D02*
X00343498Y00539996D01*
X00339166D01*
X00337Y0053783D01*
Y00529166D01*
X00339166Y00527D01*
X00343498D01*
X00345664Y00529166D01*
Y00533498D01*
X00341332D01*
X00349996Y00527D02*
Y00539996D01*
X00356494D01*
X0035866Y0053783D01*
Y00533498D01*
X00356494Y00531332D01*
X00349996D01*
X00362992Y00539996D02*
X00367323D01*
X00365158D01*
Y00527D01*
X00362992D01*
X00367323D01*
X00380319Y00539996D02*
X00375987D01*
X00373821Y0053783D01*
Y00529166D01*
X00375987Y00527D01*
X00380319D01*
X00382485Y00529166D01*
Y0053783D01*
X00380319Y00539996D01*
X00486Y00503496D02*
Y00492666D01*
X00488166Y004905D01*
X00492498D01*
X00494664Y00492666D01*
Y00503496D01*
X00498996D02*
X0050766D01*
X00503328D01*
Y004905D01*
X00511992Y00503496D02*
X00520656Y004905D01*
Y00503496D02*
X00511992Y004905D01*
X00486Y00479496D02*
Y00468666D01*
X00488166Y004665D01*
X00492498D01*
X00494664Y00468666D01*
Y00479496D01*
X00498996Y004665D02*
Y00479496D01*
X00505494D01*
X0050766Y0047733D01*
Y00472998D01*
X00505494Y00470832D01*
X00498996D01*
X00503328D02*
X0050766Y004665D01*
X00511992Y00479496D02*
X00520656Y004665D01*
Y00479496D02*
X00511992Y004665D01*
X00477504Y00205D02*
X00486168D01*
X004905Y00209332D01*
X00486168Y00213664D01*
X00477504D01*
Y00217996D02*
X004905D01*
Y00224494D01*
X00488334Y0022666D01*
X00486168D01*
X00484002Y00224494D01*
Y00217996D01*
Y00224494D01*
X00481836Y0022666D01*
X0047967D01*
X00477504Y00224494D01*
Y00217996D01*
Y00230992D02*
X00488334D01*
X004905Y00233158D01*
Y00237489D01*
X00488334Y00239655D01*
X00477504D01*
X0047967Y00252651D02*
X00477504Y00250485D01*
Y00246153D01*
X0047967Y00243987D01*
X00481836D01*
X00484002Y00246153D01*
Y00250485D01*
X00486168Y00252651D01*
X00488334D01*
X004905Y00250485D01*
Y00246153D01*
X00488334Y00243987D01*
X00271664Y0049708D02*
X00269498Y00499246D01*
X00265166D01*
X00263Y0049708D01*
Y00494914D01*
X00265166Y00492748D01*
X00269498D01*
X00271664Y00490582D01*
Y00488416D01*
X00269498Y0048625D01*
X00265166D01*
X00263Y00488416D01*
X00275996Y00499246D02*
Y0048625D01*
X00282494D01*
X0028466Y00488416D01*
Y0049708D01*
X00282494Y00499246D01*
X00275996D01*
X00288992Y0048625D02*
Y00494914D01*
X00293324Y00499246D01*
X00297656Y00494914D01*
Y0048625D01*
Y00492748D01*
X00288992D01*
X00272164Y0052283D02*
X00269998Y00524996D01*
X00265666D01*
X002635Y0052283D01*
Y00520664D01*
X00265666Y00518498D01*
X00269998D01*
X00272164Y00516332D01*
Y00514166D01*
X00269998Y00512D01*
X00265666D01*
X002635Y00514166D01*
X0028516Y0052283D02*
X00282994Y00524996D01*
X00278662D01*
X00276496Y0052283D01*
Y00514166D01*
X00278662Y00512D01*
X00282994D01*
X0028516Y00514166D01*
X00289492Y00524996D02*
Y00512D01*
X00298155D01*
X00271664Y0054558D02*
X00269498Y00547746D01*
X00265166D01*
X00263Y0054558D01*
Y00536916D01*
X00265166Y0053475D01*
X00269498D01*
X00271664Y00536916D01*
Y00541248D01*
X00267332D01*
X00275996Y0053475D02*
Y00547746D01*
X0028466Y0053475D01*
Y00547746D01*
X00288992D02*
Y0053475D01*
X0029549D01*
X00297656Y00536916D01*
Y0054558D01*
X0029549Y00547746D01*
X00288992D01*
X00271164Y0043783D02*
X00268998Y00439996D01*
X00264666D01*
X002625Y0043783D01*
Y00429166D01*
X00264666Y00427D01*
X00268998D01*
X00271164Y00429166D01*
Y00433498D01*
X00266832D01*
X00275496Y00427D02*
Y00439996D01*
X0028416Y00427D01*
Y00439996D01*
X00288492D02*
Y00427D01*
X00294989D01*
X00297155Y00429166D01*
Y0043783D01*
X00294989Y00439996D01*
X00288492D01*
X0026275Y00571996D02*
Y00563332D01*
X00267082Y00559D01*
X00271414Y00563332D01*
Y00571996D01*
X0028441Y0056983D02*
X00282244Y00571996D01*
X00277912D01*
X00275746Y0056983D01*
Y00561166D01*
X00277912Y00559D01*
X00282244D01*
X0028441Y00561166D01*
X00297405Y0056983D02*
X0029524Y00571996D01*
X00290908D01*
X00288742Y0056983D01*
Y00561166D01*
X00290908Y00559D01*
X0029524D01*
X00297405Y00561166D01*
X00273164Y0022658D02*
X00270998Y00228746D01*
X00266666D01*
X002645Y0022658D01*
Y00217916D01*
X00266666Y0021575D01*
X00270998D01*
X00273164Y00217916D01*
X00277496Y00228746D02*
Y0021575D01*
X0028616D01*
X00290492Y00228746D02*
Y0021575D01*
Y00220082D01*
X00299156Y00228746D01*
X00292658Y00222248D01*
X00299156Y0021575D01*
X0026425Y00255246D02*
Y0024225D01*
X00270748D01*
X00272914Y00244416D01*
Y0025308D01*
X00270748Y00255246D01*
X0026425D01*
X00277246D02*
X00281578D01*
X00279412D01*
Y0024225D01*
X00277246D01*
X00281578D01*
X00294573Y00255246D02*
X00290242D01*
X00288076Y0025308D01*
Y00244416D01*
X00290242Y0024225D01*
X00294573D01*
X0029674Y00244416D01*
Y0025308D01*
X00294573Y00255246D01*
X004865Y0034383D02*
X00488666Y00345996D01*
X00492998D01*
X00495164Y0034383D01*
Y00341664D01*
X00492998Y00339498D01*
X00490832D01*
X00492998D01*
X00495164Y00337332D01*
Y00335166D01*
X00492998Y00333D01*
X00488666D01*
X004865Y00335166D01*
X00499496Y00345996D02*
Y00337332D01*
X00503828Y00333D01*
X0050816Y00337332D01*
Y00345996D01*
X00512492Y0034383D02*
X00514658Y00345996D01*
X00518989D01*
X00521156Y0034383D01*
Y00341664D01*
X00518989Y00339498D01*
X00516824D01*
X00518989D01*
X00521156Y00337332D01*
Y00335166D01*
X00518989Y00333D01*
X00514658D01*
X00512492Y00335166D01*
X0048675Y00370996D02*
Y00362332D01*
X00491082Y00358D01*
X00495414Y00362332D01*
Y00370996D01*
X0050841Y0036883D02*
X00506244Y00370996D01*
X00501912D01*
X00499746Y0036883D01*
Y00360166D01*
X00501912Y00358D01*
X00506244D01*
X0050841Y00360166D01*
X00521405Y0036883D02*
X0051924Y00370996D01*
X00514908D01*
X00512742Y0036883D01*
Y00360166D01*
X00514908Y00358D01*
X0051924D01*
X00521405Y00360166D01*
X00509414Y00396746D02*
X0050075D01*
Y00390248D01*
X00505082Y00392414D01*
X00507248D01*
X00509414Y00390248D01*
Y00385916D01*
X00507248Y0038375D01*
X00502916D01*
X0050075Y00385916D01*
X00513746Y00396746D02*
Y00388082D01*
X00518078Y0038375D01*
X0052241Y00388082D01*
Y00396746D01*
X004865Y00428246D02*
Y00419582D01*
X00490832Y0041525D01*
X00495164Y00419582D01*
Y00428246D01*
X0050816Y0042608D02*
X00505994Y00428246D01*
X00501662D01*
X00499496Y0042608D01*
Y00417416D01*
X00501662Y0041525D01*
X00505994D01*
X0050816Y00417416D01*
X00521156Y0042608D02*
X00518989Y00428246D01*
X00514658D01*
X00512492Y0042608D01*
Y00417416D01*
X00514658Y0041525D01*
X00518989D01*
X00521156Y00417416D01*
X00495164Y0045183D02*
X00492998Y00453996D01*
X00488666D01*
X004865Y0045183D01*
Y00443166D01*
X00488666Y00441D01*
X00492998D01*
X00495164Y00443166D01*
Y00447498D01*
X00490832D01*
X00499496Y00441D02*
Y00453996D01*
X0050816Y00441D01*
Y00453996D01*
X00512492D02*
Y00441D01*
X00518989D01*
X00521156Y00443166D01*
Y0045183D01*
X00518989Y00453996D01*
X00512492D01*
X0026425Y0019075D02*
Y00203746D01*
X00270748D01*
X00272914Y0020158D01*
Y00197248D01*
X00270748Y00195082D01*
X0026425D01*
X00268582D02*
X00272914Y0019075D01*
X0028591Y0020158D02*
X00283744Y00203746D01*
X00279412D01*
X00277246Y0020158D01*
Y00199414D01*
X00279412Y00197248D01*
X00283744D01*
X0028591Y00195082D01*
Y00192916D01*
X00283744Y0019075D01*
X00279412D01*
X00277246Y00192916D01*
X00290242Y00203746D02*
X00298906D01*
X00294574D01*
Y0019075D01*
X00272914Y0027758D02*
X00270748Y00279746D01*
X00266416D01*
X0026425Y0027758D01*
Y00268916D01*
X00266416Y0026675D01*
X00270748D01*
X00272914Y00268916D01*
Y00273248D01*
X00268582D01*
X00277246Y0026675D02*
Y00279746D01*
X0028591Y0026675D01*
Y00279746D01*
X00290242D02*
Y0026675D01*
X0029674D01*
X00298906Y00268916D01*
Y0027758D01*
X0029674Y00279746D01*
X00290242D01*
X0026425Y00305496D02*
Y00296832D01*
X00268582Y002925D01*
X00272914Y00296832D01*
Y00305496D01*
X0028591Y0030333D02*
X00283744Y00305496D01*
X00279412D01*
X00277246Y0030333D01*
Y00294666D01*
X00279412Y002925D01*
X00283744D01*
X0028591Y00294666D01*
X00298906Y0030333D02*
X0029674Y00305496D01*
X00292408D01*
X00290242Y0030333D01*
Y00294666D01*
X00292408Y002925D01*
X0029674D01*
X00298906Y00294666D01*
X0026225Y00326D02*
Y00338996D01*
X00266582Y00334664D01*
X00270914Y00338996D01*
Y00326D01*
X00281744Y00338996D02*
X00277412D01*
X00275246Y0033683D01*
Y00328166D01*
X00277412Y00326D01*
X00281744D01*
X0028391Y00328166D01*
Y0033683D01*
X00281744Y00338996D01*
X00296905Y0033683D02*
X00294739Y00338996D01*
X00290408D01*
X00288242Y0033683D01*
Y00334664D01*
X00290408Y00332498D01*
X00294739D01*
X00296905Y00330332D01*
Y00328166D01*
X00294739Y00326D01*
X00290408D01*
X00288242Y00328166D01*
X00301237Y00338996D02*
X00305569D01*
X00303403D01*
Y00326D01*
X00301237D01*
X00305569D01*
X002625Y003535D02*
Y00365496D01*
X00266499Y00361497D01*
X00270497Y00365496D01*
Y003535D01*
X00274496Y00365496D02*
X00278495D01*
X00276495D01*
Y003535D01*
X00274496D01*
X00278495D01*
X0029249Y00363497D02*
X00290491Y00365496D01*
X00286492D01*
X00284493Y00363497D01*
Y00361497D01*
X00286492Y00359498D01*
X00290491D01*
X0029249Y00357499D01*
Y00355499D01*
X00290491Y003535D01*
X00286492D01*
X00284493Y00355499D01*
X00302487Y00365496D02*
X00298488D01*
X00296489Y00363497D01*
Y00355499D01*
X00298488Y003535D01*
X00302487D01*
X00304486Y00355499D01*
Y00363497D01*
X00302487Y00365496D01*
X0026325Y0037825D02*
Y00391246D01*
X00271914Y0037825D01*
Y00391246D01*
X0028491Y0038908D02*
X00282744Y00391246D01*
X00278412D01*
X00276246Y0038908D01*
Y00386914D01*
X00278412Y00384748D01*
X00282744D01*
X0028491Y00382582D01*
Y00380416D01*
X00282744Y0037825D01*
X00278412D01*
X00276246Y00380416D01*
X00297906Y0038908D02*
X00295739Y00391246D01*
X00291408D01*
X00289242Y0038908D01*
Y00386914D01*
X00291408Y00384748D01*
X00295739D01*
X00297906Y00382582D01*
Y00380416D01*
X00295739Y0037825D01*
X00291408D01*
X00289242Y00380416D01*
X00271664Y0041483D02*
X00269498Y00416996D01*
X00265166D01*
X00263Y0041483D01*
Y00406166D01*
X00265166Y00404D01*
X00269498D01*
X00271664Y00406166D01*
X00275996Y00416996D02*
Y00404D01*
X0028466D01*
X00288992Y00416996D02*
Y00404D01*
Y00408332D01*
X00297656Y00416996D01*
X00291158Y00410498D01*
X00297656Y00404D01*
X002625Y00466746D02*
Y00458082D01*
X00266832Y0045375D01*
X00271164Y00458082D01*
Y00466746D01*
X0028416Y0046458D02*
X00281994Y00466746D01*
X00277662D01*
X00275496Y0046458D01*
Y00455916D01*
X00277662Y0045375D01*
X00281994D01*
X0028416Y00455916D01*
X00297155Y0046458D02*
X00294989Y00466746D01*
X00290658D01*
X00288492Y0046458D01*
Y00455916D01*
X00290658Y0045375D01*
X00294989D01*
X00297155Y00455916D01*
D12*
X00369Y00578994D02*
X00382329D01*
X00375664D01*
Y00559D01*
X00388994Y00578994D02*
Y00559D01*
X0039899D01*
X00402323Y00562332D01*
Y00575661D01*
X0039899Y00578994D01*
X00388994D01*
X00408987Y00559D02*
Y00562332D01*
X00412319D01*
Y00559D01*
X00408987D01*
X00425648Y00575661D02*
X00428981Y00578994D01*
X00435645D01*
X00438977Y00575661D01*
Y00562332D01*
X00435645Y00559D01*
X00428981D01*
X00425648Y00562332D01*
Y00575661D01*
X00445642D02*
X00448974Y00578994D01*
X00455639D01*
X00458971Y00575661D01*
Y00562332D01*
X00455639Y00559D01*
X00448974D01*
X00445642Y00562332D01*
Y00575661D01*
X00465635D02*
X00468968Y00578994D01*
X00475632D01*
X00478965Y00575661D01*
Y00562332D01*
X00475632Y00559D01*
X00468968D01*
X00465635Y00562332D01*
Y00575661D01*
X00498958Y00559D02*
X00485629D01*
X00498958Y00572329D01*
Y00575661D01*
X00495626Y00578994D01*
X00488961D01*
X00485629Y00575661D01*
X00505623Y00568997D02*
X00518952D01*
X00525616Y00559D02*
X00532281D01*
X00528948D01*
Y00578994D01*
X00525616Y00575661D01*
X00542277D02*
X0054561Y00578994D01*
X00552274D01*
X00555606Y00575661D01*
Y00562332D01*
X00552274Y00559D01*
X0054561D01*
X00542277Y00562332D01*
Y00575661D01*
X00562271Y00559D02*
X00568936D01*
X00565603D01*
Y00578994D01*
X00562271Y00575661D01*
M02*
