G04*
G04 #@! TF.GenerationSoftware,Altium Limited,Altium Designer,23.2.1 (34)*
G04*
G04 Layer_Color=32896*
%FSTAX44Y44*%
%MOMM*%
G71*
G04*
G04 #@! TF.SameCoordinates,9BF6DC58-3579-49A4-A00A-48C36C1373D3*
G04*
G04*
G04 #@! TF.FilePolarity,Positive*
G04*
G01*
G75*
%ADD12C,0.4000*%
D12*
X00441Y00391494D02*
Y003715D01*
X00431003D01*
X00427671Y00374832D01*
Y00378164D01*
X00431003Y00381497D01*
X00441D01*
X00431003D01*
X00427671Y00384829D01*
Y00388161D01*
X00431003Y00391494D01*
X00441D01*
X0041101D02*
X00417674D01*
X00421006Y00388161D01*
Y00374832D01*
X00417674Y003715D01*
X0041101D01*
X00407677Y00374832D01*
Y00388161D01*
X0041101Y00391494D01*
X00401013Y003715D02*
Y00384829D01*
X00394348Y00391494D01*
X00387684Y00384829D01*
Y003715D01*
Y00381497D01*
X00401013D01*
X00381019Y003715D02*
Y00391494D01*
X00371022D01*
X0036769Y00388161D01*
Y00381497D01*
X00371022Y00378164D01*
X00381019D01*
X00374355D02*
X0036769Y003715D01*
X00361026Y00391494D02*
Y003715D01*
X00351029D01*
X00347697Y00374832D01*
Y00388161D01*
X00351029Y00391494D01*
X00361026D01*
X004335Y00426494D02*
Y004065D01*
Y00416497D01*
X00420171D01*
Y00426494D01*
Y004065D01*
X0040351Y00426494D02*
X00410174D01*
X00413506Y00423161D01*
Y00409832D01*
X00410174Y004065D01*
X0040351D01*
X00400177Y00409832D01*
Y00423161D01*
X0040351Y00426494D01*
X00380184Y00423161D02*
X00383516Y00426494D01*
X00390181D01*
X00393513Y00423161D01*
Y00419829D01*
X00390181Y00416497D01*
X00383516D01*
X00380184Y00413164D01*
Y00409832D01*
X00383516Y004065D01*
X00390181D01*
X00393513Y00409832D01*
X00373519Y00426494D02*
X0036019D01*
X00366855D01*
Y004065D01*
X00506Y00444D02*
Y00463994D01*
X00496003D01*
X00492671Y00460661D01*
Y00453997D01*
X00496003Y00450664D01*
X00506D01*
X00486006Y00444D02*
Y00463994D01*
X0047601D01*
X00472677Y00460661D01*
Y00453997D01*
X0047601Y00450664D01*
X00486006D01*
X00479342D02*
X00472677Y00444D01*
X00456016Y00463994D02*
X00462681D01*
X00466013Y00460661D01*
Y00447332D01*
X00462681Y00444D01*
X00456016D01*
X00452684Y00447332D01*
Y00460661D01*
X00456016Y00463994D01*
X0043269Y00460661D02*
X00436022Y00463994D01*
X00442687D01*
X00446019Y00460661D01*
Y00447332D01*
X00442687Y00444D01*
X00436022D01*
X0043269Y00447332D01*
Y00453997D01*
X00439355D01*
X00426026Y00444D02*
Y00463994D01*
X00416029D01*
X00412697Y00460661D01*
Y00453997D01*
X00416029Y00450664D01*
X00426026D01*
X00419361D02*
X00412697Y00444D01*
X00406032D02*
Y00457329D01*
X00399368Y00463994D01*
X00392703Y00457329D01*
Y00444D01*
Y00453997D01*
X00406032D01*
X00386039Y00444D02*
Y00463994D01*
X00379374Y00457329D01*
X0037271Y00463994D01*
Y00444D01*
X00366045D02*
Y00463994D01*
X00359381Y00457329D01*
X00352716Y00463994D01*
Y00444D01*
X00346051D02*
Y00457329D01*
X00339387Y00463994D01*
X00332723Y00457329D01*
Y00444D01*
Y00453997D01*
X00346051D01*
X00326058Y00463994D02*
X00312729D01*
X00319394D01*
Y00444D01*
X00296068Y00463994D02*
X00302732D01*
X00306064Y00460661D01*
Y00447332D01*
X00302732Y00444D01*
X00296068D01*
X00292735Y00447332D01*
Y00460661D01*
X00296068Y00463994D01*
X00286071Y00444D02*
Y00463994D01*
X00276074D01*
X00272742Y00460661D01*
Y00453997D01*
X00276074Y00450664D01*
X00286071D01*
X00279406D02*
X00272742Y00444D01*
X00571Y00578994D02*
X00557671D01*
X00564336D01*
Y00559D01*
X00551006Y00578994D02*
Y00559D01*
X0054101D01*
X00537677Y00562332D01*
Y00575661D01*
X0054101Y00578994D01*
X00551006D01*
X00531013Y00559D02*
Y00562332D01*
X00527681D01*
Y00559D01*
X00531013D01*
X00514352Y00575661D02*
X00511019Y00578994D01*
X00504355D01*
X00501023Y00575661D01*
Y00562332D01*
X00504355Y00559D01*
X00511019D01*
X00514352Y00562332D01*
Y00575661D01*
X00494358D02*
X00491026Y00578994D01*
X00484361D01*
X00481029Y00575661D01*
Y00562332D01*
X00484361Y00559D01*
X00491026D01*
X00494358Y00562332D01*
Y00575661D01*
X00474365D02*
X00471032Y00578994D01*
X00464368D01*
X00461035Y00575661D01*
Y00562332D01*
X00464368Y00559D01*
X00471032D01*
X00474365Y00562332D01*
Y00575661D01*
X00441042Y00559D02*
X00454371D01*
X00441042Y00572329D01*
Y00575661D01*
X00444374Y00578994D01*
X00451039D01*
X00454371Y00575661D01*
X00434377Y00568997D02*
X00421048D01*
X00414384Y00559D02*
X00407719D01*
X00411052D01*
Y00578994D01*
X00414384Y00575661D01*
X00397723D02*
X0039439Y00578994D01*
X00387726D01*
X00384394Y00575661D01*
Y00562332D01*
X00387726Y00559D01*
X0039439D01*
X00397723Y00562332D01*
Y00575661D01*
X00377729Y00559D02*
X00371064D01*
X00374397D01*
Y00578994D01*
X00377729Y00575661D01*
M02*
