M48
;Layer_Color=9474304
;FILE_FORMAT=4:4
METRIC,LZ
;TYPE=PLATED
T1F00S00C0.3000
T2F00S00C1.0000
%
T01
X002225Y001775
Y002075
Y002425
Y002725
Y003025
X0026Y0031475
X00281236Y00314815
X003Y0031475
X00279736Y00332315
X0028Y0035475
X003Y0036
X003005Y0039475
X0034Y0039475
X0038
X0036Y0035475
X0038Y0031475
X0034
X003485Y0027425
X0031Y00265
X003Y0024425
X003035Y00224722
X0032Y0019475
X0036
X0038Y0023475
X0034
X0028Y0019475
X00232236Y00345315
X00231486Y00371315
X004Y0035475
X004475Y003525
Y00305
X0042Y0031475
X004Y0027475
X0044
X0048
X00499Y0028775
Y0031975
X00531Y0031975
X00563
Y0028775
Y0025575
X0056Y00245
X0054Y0023475
X00522085Y0023464
X0053175Y0021875
Y0020725
Y0019575
X0053425Y0018575
X00531Y0025575
Y0028775
X00499Y0025575
X0046Y0023475
X0042
X004Y0019475
X0044
X00481582Y00371802
X00483Y003825
X005Y0039475
X0052Y0035475
X0056
X0058Y0039475
X0042
X004Y0043475
X00399995Y0047725
X0041425Y0047675
X0042625Y0048375
X004525Y004825
X0044Y0051475
X0048
X0052
X0056
X0058Y0055475
X0054
X005
X0046
X0042
X0044775Y004425
Y004305
X004795Y004015
X00504082Y00416802
X00501582Y00456802
X005Y0047475
X0058
X00547239Y00409112
X0036Y0043475
X003525Y0047
X00337Y00469
X00326582Y00496802
Y00511802
X0028Y0051475
X00269082Y00514302
X00232236Y00504315
X00232486Y00529815
X00222236Y00560315
X00223236Y00578565
X002625Y0058
X003Y0055475
X0034
X0038
Y0047475
X00285Y004825
X0026Y0047475
X00259486Y00423315
X00230986Y00422315
X0028Y0043475
X00295Y004225
X0030075Y0041075
X00275Y004025
T02
X00245Y001985
Y00224
Y0024925
Y002745
Y003
X0024475Y003335
X00244731Y0035891
X0024475Y003845
X005395Y00392
Y0036675
Y0034125
X004855Y0018975
X005395Y0042425
Y0044975
Y00475
Y0050025
X00245Y00492
Y0051725
Y005425
Y00568
X0024475Y004605
Y00435
Y0040975
M30
